<?xml version="1.0" encoding="UTF-8" standalone="no"?>
<!-- Created with Inkscape (http://www.inkscape.org/) -->

<svg
   xmlns:dc="http://purl.org/dc/elements/1.1/"
   xmlns:cc="http://creativecommons.org/ns#"
   xmlns:rdf="http://www.w3.org/1999/02/22-rdf-syntax-ns#"
   xmlns:svg="http://www.w3.org/2000/svg"
   xmlns="http://www.w3.org/2000/svg"
   xmlns:sodipodi="http://sodipodi.sourceforge.net/DTD/sodipodi-0.dtd"
   xmlns:inkscape="http://www.inkscape.org/namespaces/inkscape"
   version="1.1"
   id="svg5069"
   xml:space="preserve"
   width="750.66669"
   height="498.66666"
   viewBox="0 0 750.66669 498.66666"
   sodipodi:docname="grafische-darstellung-2.svg"
   inkscape:version="0.92.3 (2405546, 2018-03-11)"><metadata
     id="metadata5075"><rdf:RDF><cc:Work
         rdf:about=""><dc:format>image/svg+xml</dc:format><dc:type
           rdf:resource="http://purl.org/dc/dcmitype/StillImage" /><dc:title></dc:title></cc:Work></rdf:RDF></metadata><defs
     id="defs5073" /><sodipodi:namedview
     pagecolor="#ffffff"
     bordercolor="#666666"
     borderopacity="1"
     objecttolerance="10"
     gridtolerance="10"
     guidetolerance="10"
     inkscape:pageopacity="0"
     inkscape:pageshadow="2"
     inkscape:window-width="640"
     inkscape:window-height="480"
     id="namedview5071"
     showgrid="false"
     inkscape:zoom="0.47326204"
     inkscape:cx="375.33334"
     inkscape:cy="249.33333"
     inkscape:window-x="67"
     inkscape:window-y="27"
     inkscape:window-maximized="0"
     inkscape:current-layer="g5077" /><g
     id="g5077"
     inkscape:groupmode="layer"
     inkscape:label="ink_ext_XXXXXX"
     transform="matrix(1.3333333,0,0,-1.3333333,0,498.66667)"><g
       id="g5079"
       transform="scale(0.1)"><path
         d="m 1621.39,793.688 c 0,-230.911 -329.96,-418.102 -736.995,-418.102 -407.032,0 -736.997,187.191 -736.997,418.102 0,230.912 329.965,418.102 736.997,418.102 407.035,0 736.995,-187.19 736.995,-418.102"
         style="fill:#ffffff;fill-opacity:1;fill-rule:nonzero;stroke:none"
         id="path5081"
         inkscape:connector-curvature="0" /><path
         d="m 1621.39,793.688 c 0,-230.911 -329.96,-418.102 -736.995,-418.102 -407.032,0 -736.997,187.191 -736.997,418.102 0,230.912 329.965,418.102 736.997,418.102 407.035,0 736.995,-187.19 736.995,-418.102 z"
         style="fill:none;stroke:#000000;stroke-width:28.34600067;stroke-linecap:butt;stroke-linejoin:miter;stroke-miterlimit:10;stroke-dasharray:none;stroke-opacity:1"
         id="path5083"
         inkscape:connector-curvature="0" /><g
         id="g5085"
         transform="scale(10)"><text
           transform="matrix(1,0,0,-1,79.0852,82.1727)"
           style="font-variant:normal;font-weight:normal;font-size:29.87549973px;font-family:Helvetica;-inkscape-font-specification:Helvetica;writing-mode:lr-tb;fill:#000000;fill-opacity:1;fill-rule:nonzero;stroke:none"
           id="text5089"><tspan
             x="0"
             y="0"
             id="tspan5087">E</tspan></text>
</g><path
         d="m 1488.16,2696.41 c 0,-230.91 -329.96,-418.1 -736.992,-418.1 -407.031,0 -736.9961,187.19 -736.9961,418.1 0,230.91 329.9651,418.11 736.9961,418.11 407.032,0 736.992,-187.2 736.992,-418.11"
         style="fill:#ffffff;fill-opacity:1;fill-rule:nonzero;stroke:none"
         id="path5091"
         inkscape:connector-curvature="0" /><path
         d="m 1488.16,2696.41 c 0,-230.91 -329.96,-418.1 -736.992,-418.1 -407.031,0 -736.9961,187.19 -736.9961,418.1 0,230.91 329.9651,418.11 736.9961,418.11 407.032,0 736.992,-187.2 736.992,-418.11 z"
         style="fill:none;stroke:#000000;stroke-width:28.34600067;stroke-linecap:butt;stroke-linejoin:miter;stroke-miterlimit:10;stroke-dasharray:none;stroke-opacity:1"
         id="path5093"
         inkscape:connector-curvature="0" /><g
         id="g5095"
         transform="scale(10)"><text
           transform="matrix(1,0,0,-1,65.7629,272.445)"
           style="font-variant:normal;font-weight:normal;font-size:29.87549973px;font-family:Helvetica;-inkscape-font-specification:Helvetica;writing-mode:lr-tb;fill:#000000;fill-opacity:1;fill-rule:nonzero;stroke:none"
           id="text5099"><tspan
             x="0"
             y="0"
             id="tspan5097">F</tspan></text>
</g><path
         d="m 5612.51,2048 c 0,-230.91 -329.97,-418.11 -737,-418.11 -407.03,0 -736.99,187.2 -736.99,418.11 0,230.91 329.96,418.1 736.99,418.1 407.03,0 737,-187.19 737,-418.1"
         style="fill:#ffffff;fill-opacity:1;fill-rule:nonzero;stroke:none"
         id="path5101"
         inkscape:connector-curvature="0" /><path
         d="m 5612.51,2048 c 0,-230.91 -329.97,-418.11 -737,-418.11 -407.03,0 -736.99,187.2 -736.99,418.11 0,230.91 329.96,418.1 736.99,418.1 407.03,0 737,-187.19 737,-418.1 z"
         style="fill:none;stroke:#000000;stroke-width:28.34600067;stroke-linecap:butt;stroke-linejoin:miter;stroke-miterlimit:10;stroke-dasharray:none;stroke-opacity:1"
         id="path5103"
         inkscape:connector-curvature="0" /><g
         id="g5105"
         transform="scale(10)"><text
           transform="matrix(1,0,0,-1,479.048,208.313)"
           style="font-variant:normal;font-weight:normal;font-size:29.87549973px;font-family:Helvetica;-inkscape-font-specification:Helvetica;writing-mode:lr-tb;fill:#000000;fill-opacity:1;fill-rule:nonzero;stroke:none"
           id="text5109"><tspan
             x="0"
             y="0"
             id="tspan5107">C</tspan></text>
</g><path
         d="m 4458.12,432.277 c 0,-230.91 -329.97,-418.1051 -737,-418.1051 -407.03,0 -736.99,187.1951 -736.99,418.1051 0,230.911 329.96,418.102 736.99,418.102 407.03,0 737,-187.191 737,-418.102"
         style="fill:#ffffff;fill-opacity:1;fill-rule:nonzero;stroke:none"
         id="path5111"
         inkscape:connector-curvature="0" /><path
         d="m 4458.12,432.277 c 0,-230.91 -329.97,-418.1051 -737,-418.1051 -407.03,0 -736.99,187.1951 -736.99,418.1051 0,230.911 329.96,418.102 736.99,418.102 407.03,0 737,-187.191 737,-418.102 z"
         style="fill:none;stroke:#000000;stroke-width:28.34600067;stroke-linecap:butt;stroke-linejoin:miter;stroke-miterlimit:10;stroke-dasharray:none;stroke-opacity:1"
         id="path5113"
         inkscape:connector-curvature="0" /><g
         id="g5115"
         transform="scale(10)"><text
           transform="matrix(1,0,0,-1,360.136,44.6141)"
           style="font-variant:normal;font-weight:normal;font-size:29.87549973px;font-family:Helvetica;-inkscape-font-specification:Helvetica;writing-mode:lr-tb;fill:#000000;fill-opacity:1;fill-rule:nonzero;stroke:none"
           id="text5119"><tspan
             x="0"
             y="0"
             id="tspan5117">D</tspan></text>
</g><path
         d="m 4162.61,3305.85 c 0,-230.91 -329.97,-418.1 -737,-418.1 -407.03,0 -736.99,187.19 -736.99,418.1 0,230.91 329.96,418.11 736.99,418.11 407.03,0 737,-187.2 737,-418.11"
         style="fill:#ffffff;fill-opacity:1;fill-rule:nonzero;stroke:none"
         id="path5121"
         inkscape:connector-curvature="0" /><path
         d="m 4162.61,3305.85 c 0,-230.91 -329.97,-418.1 -737,-418.1 -407.03,0 -736.99,187.19 -736.99,418.1 0,230.91 329.96,418.11 736.99,418.11 407.03,0 737,-187.2 737,-418.11 z"
         style="fill:none;stroke:#000000;stroke-width:28.34600067;stroke-linecap:butt;stroke-linejoin:miter;stroke-miterlimit:10;stroke-dasharray:none;stroke-opacity:1"
         id="path5123"
         inkscape:connector-curvature="0" /><g
         id="g5125"
         transform="scale(10)"><text
           transform="matrix(1,0,0,-1,329.38,330.2)"
           style="font-variant:normal;font-weight:normal;font-size:29.87549973px;font-family:Helvetica;-inkscape-font-specification:Helvetica;writing-mode:lr-tb;fill:#000000;fill-opacity:1;fill-rule:nonzero;stroke:none"
           id="text5129"><tspan
             x="0"
             y="0"
             id="tspan5127">B</tspan></text>
</g><path
         d="m 3429.87,1803.52 c 0,-230.91 -329.97,-418.11 -737,-418.11 -407.03,0 -736.99,187.2 -736.99,418.11 0,230.91 329.96,418.1 736.99,418.1 407.03,0 737,-187.19 737,-418.1"
         style="fill:#ffffff;fill-opacity:1;fill-rule:nonzero;stroke:none"
         id="path5131"
         inkscape:connector-curvature="0" /><path
         d="m 3429.87,1803.52 c 0,-230.91 -329.97,-418.11 -737,-418.11 -407.03,0 -736.99,187.2 -736.99,418.11 0,230.91 329.96,418.1 736.99,418.1 407.03,0 737,-187.19 737,-418.1 z"
         style="fill:none;stroke:#000000;stroke-width:28.34600067;stroke-linecap:butt;stroke-linejoin:miter;stroke-miterlimit:10;stroke-dasharray:none;stroke-opacity:1"
         id="path5133"
         inkscape:connector-curvature="0" /><g
         id="g5135"
         transform="scale(10)"><text
           transform="matrix(1,0,0,-1,258.374,178.407)"
           style="font-variant:normal;font-weight:normal;font-size:29.87549973px;font-family:Helvetica;-inkscape-font-specification:Helvetica;writing-mode:lr-tb;fill:#000000;fill-opacity:1;fill-rule:nonzero;stroke:none"
           id="text5139"><tspan
             x="0"
             y="0"
             id="tspan5137">A</tspan></text>
</g><path
         d="m 1405.53,1089.33 766.2,418.54"
         style="fill:none;stroke:#000000;stroke-width:28.34600067;stroke-linecap:butt;stroke-linejoin:miter;stroke-miterlimit:10;stroke-dasharray:none;stroke-opacity:1"
         id="path5141"
         inkscape:connector-curvature="0" /><path
         d="m 1272.3,2400.77 899.43,-301.61"
         style="fill:none;stroke:#000000;stroke-width:28.34600067;stroke-linecap:butt;stroke-linejoin:miter;stroke-miterlimit:10;stroke-dasharray:none;stroke-opacity:1"
         id="path5143"
         inkscape:connector-curvature="0" /><path
         d="m 2692.87,2221.62 462.26,684"
         style="fill:none;stroke:#000000;stroke-width:28.34600067;stroke-linecap:butt;stroke-linejoin:miter;stroke-miterlimit:10;stroke-dasharray:none;stroke-opacity:1"
         id="path5145"
         inkscape:connector-curvature="0" /><path
         d="M 3429.87,1803.52 4138.52,2048"
         style="fill:none;stroke:#000000;stroke-width:28.34600067;stroke-linecap:butt;stroke-linejoin:miter;stroke-miterlimit:10;stroke-dasharray:none;stroke-opacity:1"
         id="path5147"
         inkscape:connector-curvature="0" /><path
         d="M 3214,1507.87 3721.12,850.379"
         style="fill:none;stroke:#000000;stroke-width:28.34600067;stroke-linecap:butt;stroke-linejoin:miter;stroke-miterlimit:10;stroke-dasharray:none;stroke-opacity:1"
         id="path5149"
         inkscape:connector-curvature="0" /></g></g></svg>