<?xml version="1.0" encoding="UTF-8" standalone="no"?>
<!-- Created with Inkscape (http://www.inkscape.org/) -->

<svg
   xmlns:dc="http://purl.org/dc/elements/1.1/"
   xmlns:cc="http://creativecommons.org/ns#"
   xmlns:rdf="http://www.w3.org/1999/02/22-rdf-syntax-ns#"
   xmlns:svg="http://www.w3.org/2000/svg"
   xmlns="http://www.w3.org/2000/svg"
   xmlns:sodipodi="http://sodipodi.sourceforge.net/DTD/sodipodi-0.dtd"
   xmlns:inkscape="http://www.inkscape.org/namespaces/inkscape"
   version="1.1"
   id="svg4975"
   xml:space="preserve"
   width="842.66669"
   height="330.66666"
   viewBox="0 0 842.66669 330.66666"
   sodipodi:docname="grafische-darstellung.svg"
   inkscape:version="0.92.3 (2405546, 2018-03-11)"><metadata
     id="metadata4981"><rdf:RDF><cc:Work
         rdf:about=""><dc:format>image/svg+xml</dc:format><dc:type
           rdf:resource="http://purl.org/dc/dcmitype/StillImage" /><dc:title></dc:title></cc:Work></rdf:RDF></metadata><defs
     id="defs4979" /><sodipodi:namedview
     pagecolor="#ffffff"
     bordercolor="#666666"
     borderopacity="1"
     objecttolerance="10"
     gridtolerance="10"
     guidetolerance="10"
     inkscape:pageopacity="0"
     inkscape:pageshadow="2"
     inkscape:window-width="640"
     inkscape:window-height="480"
     id="namedview4977"
     showgrid="false"
     inkscape:zoom="0.42840189"
     inkscape:cx="421.33334"
     inkscape:cy="165.33333"
     inkscape:window-x="67"
     inkscape:window-y="27"
     inkscape:window-maximized="0"
     inkscape:current-layer="g4983" /><g
     id="g4983"
     inkscape:groupmode="layer"
     inkscape:label="ink_ext_XXXXXX"
     transform="matrix(1.3333333,0,0,-1.3333333,0,330.66667)"><g
       id="g4985"
       transform="scale(0.1)"><path
         d="m 1488.16,2044.46 c 0,-230.91 -329.96,-418.11 -736.992,-418.11 -407.031,0 -736.9961,187.2 -736.9961,418.11 0,230.91 329.9651,418.1 736.9961,418.1 407.032,0 736.992,-187.19 736.992,-418.1"
         style="fill:#ffffff;fill-opacity:1;fill-rule:nonzero;stroke:none"
         id="path4987"
         inkscape:connector-curvature="0" /><path
         d="m 1488.16,2044.46 c 0,-230.91 -329.96,-418.11 -736.992,-418.11 -407.031,0 -736.9961,187.2 -736.9961,418.11 0,230.91 329.9651,418.1 736.9961,418.1 407.032,0 736.992,-187.19 736.992,-418.1 z"
         style="fill:none;stroke:#000000;stroke-width:28.34600067;stroke-linecap:butt;stroke-linejoin:miter;stroke-miterlimit:10;stroke-dasharray:none;stroke-opacity:1"
         id="path4989"
         inkscape:connector-curvature="0" /><path
         d="m 3893.32,2044.46 c 0,-230.91 -329.96,-418.11 -736.99,-418.11 -407.03,0 -737,187.2 -737,418.11 0,230.91 329.97,418.1 737,418.1 407.03,0 736.99,-187.19 736.99,-418.1"
         style="fill:#ffffff;fill-opacity:1;fill-rule:nonzero;stroke:none"
         id="path4991"
         inkscape:connector-curvature="0" /><path
         d="m 3893.32,2044.46 c 0,-230.91 -329.96,-418.11 -736.99,-418.11 -407.03,0 -737,187.2 -737,418.11 0,230.91 329.97,418.1 737,418.1 407.03,0 736.99,-187.19 736.99,-418.1 z"
         style="fill:none;stroke:#000000;stroke-width:28.34600067;stroke-linecap:butt;stroke-linejoin:miter;stroke-miterlimit:10;stroke-dasharray:none;stroke-opacity:1"
         id="path4993"
         inkscape:connector-curvature="0" /><path
         d="m 1488.16,432.277 c 0,-230.91 -329.96,-418.1051 -736.992,-418.1051 -407.031,0 -736.9961,187.1951 -736.9961,418.1051 0,230.911 329.9651,418.102 736.9961,418.102 407.032,0 736.992,-187.191 736.992,-418.102"
         style="fill:#ffffff;fill-opacity:1;fill-rule:nonzero;stroke:none"
         id="path4995"
         inkscape:connector-curvature="0" /><path
         d="m 1488.16,432.277 c 0,-230.91 -329.96,-418.1051 -736.992,-418.1051 -407.031,0 -736.9961,187.1951 -736.9961,418.1051 0,230.911 329.9651,418.102 736.9961,418.102 407.032,0 736.992,-187.191 736.992,-418.102 z"
         style="fill:none;stroke:#000000;stroke-width:28.34600067;stroke-linecap:butt;stroke-linejoin:miter;stroke-miterlimit:10;stroke-dasharray:none;stroke-opacity:1"
         id="path4997"
         inkscape:connector-curvature="0" /><path
         d="m 6298.48,1247.22 c 0,-230.91 -329.96,-418.099 -737,-418.099 -407.03,0 -736.99,187.189 -736.99,418.099 0,230.91 329.96,418.11 736.99,418.11 407.04,0 737,-187.2 737,-418.11"
         style="fill:#ffffff;fill-opacity:1;fill-rule:nonzero;stroke:none"
         id="path4999"
         inkscape:connector-curvature="0" /><path
         d="m 6298.48,1247.22 c 0,-230.91 -329.96,-418.099 -737,-418.099 -407.03,0 -736.99,187.189 -736.99,418.099 0,230.91 329.96,418.11 736.99,418.11 407.04,0 737,-187.2 737,-418.11 z"
         style="fill:none;stroke:#000000;stroke-width:28.34600067;stroke-linecap:butt;stroke-linejoin:miter;stroke-miterlimit:10;stroke-dasharray:none;stroke-opacity:1"
         id="path5001"
         inkscape:connector-curvature="0" /><path
         d="m 3905.37,432.277 c 0,-230.91 -329.96,-418.1051 -736.99,-418.1051 -407.04,0 -737,187.1951 -737,418.1051 0,230.911 329.96,418.102 737,418.102 407.03,0 736.99,-187.191 736.99,-418.102"
         style="fill:#ffffff;fill-opacity:1;fill-rule:nonzero;stroke:none"
         id="path5003"
         inkscape:connector-curvature="0" /><path
         d="m 3905.37,432.277 c 0,-230.91 -329.96,-418.1051 -736.99,-418.1051 -407.04,0 -737,187.1951 -737,418.1051 0,230.911 329.96,418.102 737,418.102 407.03,0 736.99,-187.191 736.99,-418.102 z"
         style="fill:none;stroke:#000000;stroke-width:28.34600067;stroke-linecap:butt;stroke-linejoin:miter;stroke-miterlimit:10;stroke-dasharray:none;stroke-opacity:1"
         id="path5005"
         inkscape:connector-curvature="0" /><path
         d="m 1502.37,2044.46 h 778.97"
         style="fill:none;stroke:#000000;stroke-width:28.34600067;stroke-linecap:butt;stroke-linejoin:miter;stroke-miterlimit:10;stroke-dasharray:none;stroke-opacity:1"
         id="path5007"
         inkscape:connector-curvature="0" /><path
         d="m 2387.64,2044.46 -141.73,-70.87 35.43,70.87 -35.43,70.86"
         style="fill:#000000;fill-opacity:1;fill-rule:evenodd;stroke:none"
         id="path5009"
         inkscape:connector-curvature="0" /><path
         d="m 2387.64,2044.46 -141.73,-70.87 35.43,70.87 -35.43,70.86 z"
         style="fill:none;stroke:#000000;stroke-width:28.34600067;stroke-linecap:butt;stroke-linejoin:miter;stroke-miterlimit:10;stroke-dasharray:none;stroke-opacity:1"
         id="path5011"
         inkscape:connector-curvature="0" /><path
         d="m 3893.32,2044.46 1020.6,-446.3"
         style="fill:none;stroke:#000000;stroke-width:28.34600067;stroke-linecap:butt;stroke-linejoin:miter;stroke-miterlimit:10;stroke-dasharray:none;stroke-opacity:1"
         id="path5013"
         inkscape:connector-curvature="0" /><path
         d="m 5011.31,1555.57 -158.25,-8.15 60.86,50.74 -4.07,79.12"
         style="fill:#000000;fill-opacity:1;fill-rule:evenodd;stroke:none"
         id="path5015"
         inkscape:connector-curvature="0" /><path
         d="m 5011.31,1555.57 -158.25,-8.15 60.86,50.74 -4.07,79.12 z"
         style="fill:none;stroke:#000000;stroke-width:28.34600067;stroke-linecap:butt;stroke-linejoin:miter;stroke-miterlimit:10;stroke-dasharray:none;stroke-opacity:1"
         id="path5017"
         inkscape:connector-curvature="0" /><path
         d="M 5040.35,951.582 4030.85,489.688"
         style="fill:none;stroke:#000000;stroke-width:28.34600067;stroke-linecap:butt;stroke-linejoin:miter;stroke-miterlimit:10;stroke-dasharray:none;stroke-opacity:1"
         id="path5019"
         inkscape:connector-curvature="0" /><path
         d="m 3934.19,445.461 99.4,123.41 -2.74,-79.183 61.7,-49.696"
         style="fill:#000000;fill-opacity:1;fill-rule:evenodd;stroke:none"
         id="path5021"
         inkscape:connector-curvature="0" /><path
         d="m 3934.19,445.461 99.4,123.41 -2.74,-79.183 61.7,-49.696 z"
         style="fill:none;stroke:#000000;stroke-width:28.34600067;stroke-linecap:butt;stroke-linejoin:miter;stroke-miterlimit:10;stroke-dasharray:none;stroke-opacity:1"
         id="path5023"
         inkscape:connector-curvature="0" /><path
         d="m 3156.33,1626.35 9.9,-637.998"
         style="fill:none;stroke:#000000;stroke-width:28.34600067;stroke-linecap:butt;stroke-linejoin:miter;stroke-miterlimit:10;stroke-dasharray:none;stroke-opacity:1"
         id="path5025"
         inkscape:connector-curvature="0" /><path
         d="m 3167.88,882.066 -73.06,140.614 71.41,-34.328 70.31,36.528"
         style="fill:#000000;fill-opacity:1;fill-rule:evenodd;stroke:none"
         id="path5027"
         inkscape:connector-curvature="0" /><path
         d="m 3167.88,882.066 -73.06,140.614 71.41,-34.328 70.31,36.528 z"
         style="fill:none;stroke:#000000;stroke-width:28.34600067;stroke-linecap:butt;stroke-linejoin:miter;stroke-miterlimit:10;stroke-dasharray:none;stroke-opacity:1"
         id="path5029"
         inkscape:connector-curvature="0" /><path
         d="M 1272.3,727.922 2524.75,1666.09"
         style="fill:none;stroke:#000000;stroke-width:28.34600067;stroke-linecap:butt;stroke-linejoin:miter;stroke-miterlimit:10;stroke-dasharray:none;stroke-opacity:1"
         id="path5031"
         inkscape:connector-curvature="0" /><path
         d="m 2609.83,1729.81 -70.95,-141.68 -14.13,77.96 -70.84,35.47"
         style="fill:#000000;fill-opacity:1;fill-rule:evenodd;stroke:none"
         id="path5033"
         inkscape:connector-curvature="0" /><path
         d="m 2609.83,1729.81 -70.95,-141.68 -14.13,77.96 -70.84,35.47 z"
         style="fill:none;stroke:#000000;stroke-width:28.34600067;stroke-linecap:butt;stroke-linejoin:miter;stroke-miterlimit:10;stroke-dasharray:none;stroke-opacity:1"
         id="path5035"
         inkscape:connector-curvature="0" /><path
         d="M 2583.74,756.129 1382.33,1665.53"
         style="fill:none;stroke:#000000;stroke-width:28.34600067;stroke-linecap:butt;stroke-linejoin:miter;stroke-miterlimit:10;stroke-dasharray:none;stroke-opacity:1"
         id="path5037"
         inkscape:connector-curvature="0" /><path
         d="m 1297.57,1729.68 155.78,-29.03 -71.02,-35.12 -14.52,-77.89"
         style="fill:#000000;fill-opacity:1;fill-rule:evenodd;stroke:none"
         id="path5039"
         inkscape:connector-curvature="0" /><path
         d="m 1297.57,1729.68 155.78,-29.03 -71.02,-35.12 -14.52,-77.89 z"
         style="fill:none;stroke:#000000;stroke-width:28.34600067;stroke-linecap:butt;stroke-linejoin:miter;stroke-miterlimit:10;stroke-dasharray:none;stroke-opacity:1"
         id="path5041"
         inkscape:connector-curvature="0" /><path
         d="M 751.168,1626.35 V 988.371"
         style="fill:none;stroke:#000000;stroke-width:28.34600067;stroke-linecap:butt;stroke-linejoin:miter;stroke-miterlimit:10;stroke-dasharray:none;stroke-opacity:1"
         id="path5043"
         inkscape:connector-curvature="0" /><path
         d="m 751.168,882.07 -70.863,141.73 70.863,-35.429 70.867,35.429"
         style="fill:#000000;fill-opacity:1;fill-rule:evenodd;stroke:none"
         id="path5045"
         inkscape:connector-curvature="0" /><path
         d="m 751.168,882.07 -70.863,141.73 70.863,-35.429 70.867,35.429 z"
         style="fill:none;stroke:#000000;stroke-width:28.34600067;stroke-linecap:butt;stroke-linejoin:miter;stroke-miterlimit:10;stroke-dasharray:none;stroke-opacity:1"
         id="path5047"
         inkscape:connector-curvature="0" /><path
         d="m 1488.16,432.277 h 805.23"
         style="fill:none;stroke:#000000;stroke-width:28.34600067;stroke-linecap:butt;stroke-linejoin:miter;stroke-miterlimit:10;stroke-dasharray:none;stroke-opacity:1"
         id="path5049"
         inkscape:connector-curvature="0" /><path
         d="m 2399.69,432.277 -141.73,-70.867 35.43,70.867 -35.43,70.864"
         style="fill:#000000;fill-opacity:1;fill-rule:evenodd;stroke:none"
         id="path5051"
         inkscape:connector-curvature="0" /><path
         d="m 2399.69,432.277 -141.73,-70.867 35.43,70.867 -35.43,70.864 z"
         style="fill:none;stroke:#000000;stroke-width:28.34600067;stroke-linecap:butt;stroke-linejoin:miter;stroke-miterlimit:10;stroke-dasharray:none;stroke-opacity:1"
         id="path5053"
         inkscape:connector-curvature="0" /><g
         id="g5055"
         transform="scale(10)"><text
           transform="matrix(1,0,0,-1,64.2035,202.502)"
           style="font-variant:normal;font-weight:normal;font-size:29.87549973px;font-family:Helvetica;-inkscape-font-specification:Helvetica;writing-mode:lr-tb;fill:#000000;fill-opacity:1;fill-rule:nonzero;stroke:none"
           id="text5067"><tspan
             x="0"
             y="0"
             id="tspan5057">1</tspan><tspan
             x="2.40977"
             y="155.761"
             id="tspan5059">2</tspan><tspan
             x="238.24876"
             y="-1.559"
             id="tspan5061">3</tspan><tspan
             x="240.65814"
             y="157.88699"
             id="tspan5063">5</tspan><tspan
             x="482.59113"
             y="74.974899"
             id="tspan5065">4</tspan></text>
</g></g></g></svg>